# xmcd CD database file
#
# Track frame offsets:
#	150
#	19825
#	39250
#	63325
#	79437
#	98550
#	118012
#	136962
#	154562
#	172437
#	192062
#	212112
#
# Disc length: 3127 seconds
#
# Revision: 8
# Processed by: cddbd v1.5.2PL0 Copyright (c) Steve Scherf et al.
# Submitted via: CDex 1.70beta2
#
DISCID=a00c350c
DTITLE=陳慧嫻 - 我不寂寞 
DYEAR=1996
DGENRE=Pop
TTITLE0=我寂寞
TTITLE1=銷魂夜
TTITLE2=變心
TTITLE3=飄
TTITLE4=一夢半醒
TTITLE5=月夜的隨想 
TTITLE6=從今夕到永恆
TTITLE7=你喜歡我什麼
TTITLE8=愛是空氣
TTITLE9=失戀的主角
TTITLE10=越愛越陌生
TTITLE11=我寂寞(Version 2,Remington Mix)
EXTD=YEAR: 1996
EXTT0=
EXTT1=
EXTT2=
EXTT3=
EXTT4=
EXTT5=
EXTT6=
EXTT7=
EXTT8=
EXTT9=
EXTT10=
EXTT11=
PLAYORDER=
